<?xml version="1.0" encoding="UTF-8" standalone="no"?>
<!-- Created with Inkscape (http://www.inkscape.org/) -->

<svg
   width="60mm"
   height="70mm"
   viewBox="0 0 60 70"
   version="1.1"
   id="svg5"
   inkscape:version="1.1.2 (0a00cf5339, 2022-02-04)"
   sodipodi:docname="hex1_1.svg"
   inkscape:export-filename="/home/jules/prace/botanak/mikroklima/myClim/myClim/graphics/hex.png"
   inkscape:export-xdpi="200"
   inkscape:export-ydpi="200"
   xmlns:inkscape="http://www.inkscape.org/namespaces/inkscape"
   xmlns:sodipodi="http://sodipodi.sourceforge.net/DTD/sodipodi-0.dtd"
   xmlns="http://www.w3.org/2000/svg"
   xmlns:svg="http://www.w3.org/2000/svg">
  <sodipodi:namedview
     id="namedview7"
     pagecolor="#ffffff"
     bordercolor="#414141"
     borderopacity="1"
     inkscape:pageshadow="0"
     inkscape:pageopacity="0"
     inkscape:pagecheckerboard="0"
     inkscape:document-units="mm"
     showgrid="false"
     inkscape:snap-global="false"
     inkscape:zoom="1.2810466"
     inkscape:cx="49.178539"
     inkscape:cy="1.5612235"
     inkscape:window-width="1280"
     inkscape:window-height="995"
     inkscape:window-x="1920"
     inkscape:window-y="0"
     inkscape:window-maximized="1"
     inkscape:current-layer="layer1" />
  <defs
     id="defs2">
    <inkscape:path-effect
       effect="spiro"
       id="path-effect16552"
       is_visible="true"
       lpeversion="1" />
    <inkscape:path-effect
       effect="spiro"
       id="path-effect2225"
       is_visible="true"
       lpeversion="1" />
    <inkscape:path-effect
       effect="spiro"
       id="path-effect1816"
       is_visible="true"
       lpeversion="1" />
    <inkscape:path-effect
       effect="spiro"
       id="path-effect1095"
       is_visible="true"
       lpeversion="1" />
    <inkscape:path-effect
       effect="spiro"
       id="path-effect2225-4"
       is_visible="true"
       lpeversion="1" />
  </defs>
  <g
     inkscape:label="Vrstva 1"
     inkscape:groupmode="layer"
     id="layer1">
    <path
       sodipodi:type="star"
       style="color:#000000;overflow:visible;fill:#4d4d4d;stroke:none;stroke-width:0.755906;stop-color:#000000"
       id="path31-7"
       inkscape:flatsided="true"
       sodipodi:sides="6"
       sodipodi:cx="384.06049"
       sodipodi:cy="255.24709"
       sodipodi:r1="109.55476"
       sodipodi:r2="94.877205"
       sodipodi:arg1="1.5707963"
       sodipodi:arg2="2.0943951"
       inkscape:rounded="0"
       inkscape:randomized="0"
       transform="matrix(0.26458333,0,0,0.26458333,-71.616002,-32.534124)"
       inkscape:transform-center-x="1.2802016e-06"
       d="m 384.06049,364.80185 -94.87721,-54.77738 0,-109.55476 94.8772,-54.77739 94.87721,54.77738 1e-5,109.55476 z" />
    <path
       id="path1205"
       style="fill:#999999;fill-rule:evenodd;stroke:none;stroke-width:0.0822408px;stroke-linecap:butt;stroke-linejoin:miter;stroke-opacity:1"
       d="m 21.128255,15.419005 c -2.997274,3e-6 -5.427074,1.134724 -5.427183,2.534507 h 3.068927 l 0.210265,3.923725 h 0.744512 v 13.183758 l -0.06769,-0.0018 c 0,0 0.04648,1.324692 -0.01426,1.567705 -0.310719,0.141337 -0.648488,0.04343 -0.749323,0.263344 -0.108277,1.315528 -0.117002,4.156551 0.08108,4.070431 0.04015,0.04893 0.09352,0.09683 0.164226,0.14258 v 12.577017 l 2.060897,1.574746 1.9178,-1.574746 -0.05376,-12.532696 c 0.0846,-0.04465 0.149366,-0.08619 0.199097,-0.117844 0.222763,-0.25632 0.223839,-3.88749 0.0608,-4.095511 -0.10574,-0.179382 -0.7038,-0.327593 -0.7038,-0.327593 l -0.01143,-1.507069 -0.0767,-0.0051 V 21.877225 h 0.74795 L 23.489755,17.9535 h 3.065663 c -1.07e-4,-1.399782 -2.429909,-2.534503 -5.427181,-2.534506 z m -1.245952,2.534507 h 1.032939 v 1.732616 h -1.032939 z m 1.458964,0 h 1.036203 v 1.732616 h -1.036203 z"
       sodipodi:nodetypes="ccccccccccccccccccccccccccccccccccc" />
    <text
       xml:space="preserve"
       style="font-size:9.24311px;line-height:13.8647px;font-family:'Segoe Script';-inkscape-font-specification:'Segoe Script Bold';letter-spacing:0px;word-spacing:0px;fill:#ffffff;stroke:#000000;stroke-width:0.489132px;stroke-linecap:butt;stroke-linejoin:miter;stroke-opacity:1;font-weight:bold;font-style:normal;font-stretch:normal;font-variant:normal"
       x="-0.19598711"
       y="49.463902"
       id="text2148"
       transform="rotate(-20.862596)"><tspan
         sodipodi:role="line"
         id="tspan2146"
         style="font-style:normal;font-variant:normal;font-weight:bold;font-stretch:normal;font-size:9.24311px;font-family:'Segoe Script';-inkscape-font-specification:'Segoe Script Bold';fill:#ffffff;fill-opacity:1;stroke:none;stroke-width:0.489132px"
         x="-0.19598711"
         y="49.463902">myClim</tspan></text>
    <path
       style="font-variation-settings:normal;opacity:1;vector-effect:none;fill:none;fill-opacity:1;fill-rule:evenodd;stroke:#fcfcfc;stroke-width:0.7;stroke-linecap:round;stroke-linejoin:round;stroke-miterlimit:4;stroke-dasharray:none;stroke-dashoffset:0;stroke-opacity:1;-inkscape-stroke:none;stop-color:#000000;stop-opacity:1"
       d="m 53.271504,31.568203 c 1.087891,-3.000847 1.737322,-4.179685 1.737322,-4.179685"
       id="path32920"
       sodipodi:nodetypes="cc" />
    <path
       style="fill:none;fill-rule:evenodd;stroke:#fbfbfb;stroke-width:0.7;stroke-linecap:butt;stroke-linejoin:miter;stroke-miterlimit:4;stroke-dasharray:none;stroke-opacity:1"
       d="m 5.116732,38.582896 c 0.74875,-0.639019 1.0572848,-2.139346 1.7226904,-2.778894 0.5400264,-0.494243 1.0516912,-0.797601 1.3713799,-1.481772 0.4722215,-1.627498 1.1023359,-3.247671 1.1023359,-3.247671 0,0 0.304467,-1.700708 1.4419068,-1.883382 1.075029,0.734321 0.201066,3.739634 1.705667,6.367585 1.445301,1.575945 1.031916,1.184763 1.353952,3.882354 0.337003,2.822975 0.488234,4.990565 2.16905,3.911378 1.177805,-0.514276 1.565198,-1.330442 1.565198,-1.330442"
       id="path3705"
       sodipodi:nodetypes="ccccccscc" />
    <path
       sodipodi:type="star"
       style="color:#000000;overflow:visible;fill:none;stroke:#2e2e2e;stroke-width:2.64566932;stroke-miterlimit:4;stroke-dasharray:none;stroke-opacity:1;stop-color:#000000"
       id="path1425-2"
       inkscape:flatsided="true"
       sodipodi:sides="6"
       sodipodi:cx="384.06049"
       sodipodi:cy="255.24709"
       sodipodi:r1="109.55476"
       sodipodi:r2="94.877205"
       sodipodi:arg1="1.5707963"
       sodipodi:arg2="2.0943951"
       inkscape:rounded="0"
       inkscape:randomized="0"
       transform="matrix(0.26458333,0,0,0.26458333,-71.616002,-32.534124)"
       inkscape:transform-center-x="1.2802016e-06"
       d="m 384.06049,364.80185 -94.87721,-54.77738 0,-109.55476 94.8772,-54.77739 94.87721,54.77738 1e-5,109.55476 z" />
  </g>
</svg>
