<?xml version="1.0" encoding="UTF-8" standalone="no"?>
<!-- Created with Inkscape (http://www.inkscape.org/) -->

<svg
   width="60mm"
   height="70mm"
   viewBox="0 0 60 70"
   version="1.1"
   id="svg5"
   inkscape:version="1.1.2 (0a00cf5339, 2022-02-04)"
   sodipodi:docname="hex2.svg"
   inkscape:export-filename="/home/jules/prace/botanak/mikroklima/myClim/myClim/graphics/hex.png"
   inkscape:export-xdpi="200"
   inkscape:export-ydpi="200"
   xmlns:inkscape="http://www.inkscape.org/namespaces/inkscape"
   xmlns:sodipodi="http://sodipodi.sourceforge.net/DTD/sodipodi-0.dtd"
   xmlns="http://www.w3.org/2000/svg"
   xmlns:svg="http://www.w3.org/2000/svg">
  <sodipodi:namedview
     id="namedview7"
     pagecolor="#ffffff"
     bordercolor="#414141"
     borderopacity="1"
     inkscape:pageshadow="0"
     inkscape:pageopacity="0"
     inkscape:pagecheckerboard="0"
     inkscape:document-units="mm"
     showgrid="false"
     inkscape:snap-global="false"
     inkscape:zoom="2.5620932"
     inkscape:cx="97.966771"
     inkscape:cy="145.97439"
     inkscape:window-width="1920"
     inkscape:window-height="1007"
     inkscape:window-x="0"
     inkscape:window-y="0"
     inkscape:window-maximized="1"
     inkscape:current-layer="layer1" />
  <defs
     id="defs2">
    <inkscape:path-effect
       effect="powerstroke"
       id="path-effect69648"
       is_visible="true"
       lpeversion="1"
       offset_points="0.76028583,0.25721368 | 20.706412,0.2876816 | 40.526627,0.42167314"
       not_jump="false"
       sort_points="true"
       interpolator_type="CentripetalCatmullRom"
       interpolator_beta="0.2"
       start_linecap_type="round"
       linejoin_type="round"
       miter_limit="4"
       scale_width="1"
       end_linecap_type="round" />
    <inkscape:path-effect
       effect="powerstroke"
       id="path-effect68678"
       is_visible="true"
       lpeversion="1"
       offset_points="0.2,0.017501084 | 20.5,0.017501084 | 40.8,0.017501084"
       not_jump="false"
       sort_points="true"
       interpolator_type="CentripetalCatmullRom"
       interpolator_beta="0.5"
       start_linecap_type="zerowidth"
       linejoin_type="round"
       miter_limit="10"
       scale_width="13"
       end_linecap_type="butt" />
    <inkscape:path-effect
       effect="powerstroke"
       id="path-effect68674"
       is_visible="true"
       lpeversion="1"
       offset_points="0.2,0.066145837 | 20.5,0.066145837 | 40.8,0.066145837"
       not_jump="false"
       sort_points="true"
       interpolator_type="CentripetalCatmullRom"
       interpolator_beta="0.2"
       start_linecap_type="zerowidth"
       linejoin_type="round"
       miter_limit="4.5"
       scale_width="1"
       end_linecap_type="zerowidth" />
    <inkscape:path-effect
       effect="taper_stroke"
       id="path-effect68672"
       is_visible="true"
       lpeversion="1"
       stroke_width="0.5"
       attach_start="0.2"
       end_offset="0.2"
       start_smoothing="0.5"
       end_smoothing="0.5"
       jointype="extrapolated"
       start_shape="center"
       end_shape="center"
       miter_limit="100" />
    <inkscape:path-effect
       effect="powerstroke"
       id="path-effect66784"
       is_visible="true"
       lpeversion="1"
       offset_points="0.2,0.1322915 | 0.5,0.1322915 | 0.8,0.1322915"
       not_jump="false"
       sort_points="true"
       interpolator_type="CubicBezierJohan"
       interpolator_beta="0.2"
       start_linecap_type="zerowidth"
       linejoin_type="round"
       miter_limit="10"
       scale_width="2.3"
       end_linecap_type="butt" />
    <inkscape:path-effect
       effect="taper_stroke"
       id="path-effect66455"
       is_visible="true"
       lpeversion="1"
       stroke_width="1"
       attach_start="0.99999"
       end_offset="0.99999"
       start_smoothing="0.5"
       end_smoothing="0.5"
       jointype="extrapolated"
       start_shape="center"
       end_shape="center"
       miter_limit="100" />
    <inkscape:path-effect
       effect="powerstroke"
       id="path-effect66358"
       is_visible="true"
       lpeversion="1"
       offset_points="0.2,0.092604168 | 17.5,0.092604168 | 34.8,0.092604168"
       not_jump="false"
       sort_points="true"
       interpolator_type="Linear"
       interpolator_beta="0.278826"
       start_linecap_type="butt"
       linejoin_type="round"
       miter_limit="4.5"
       scale_width="1.2"
       end_linecap_type="zerowidth" />
    <inkscape:path-effect
       effect="taper_stroke"
       id="path-effect66356"
       is_visible="true"
       lpeversion="1"
       stroke_width="0.69999999"
       attach_start="0.2"
       end_offset="5"
       start_smoothing="0.5"
       end_smoothing="0.5"
       jointype="extrapolated"
       start_shape="center"
       end_shape="center"
       miter_limit="100" />
    <inkscape:path-effect
       effect="spiro"
       id="path-effect16552"
       is_visible="true"
       lpeversion="1" />
    <inkscape:path-effect
       effect="spiro"
       id="path-effect2225"
       is_visible="true"
       lpeversion="1" />
    <inkscape:path-effect
       effect="spiro"
       id="path-effect1816"
       is_visible="true"
       lpeversion="1" />
    <inkscape:path-effect
       effect="spiro"
       id="path-effect1095"
       is_visible="true"
       lpeversion="1" />
    <inkscape:path-effect
       effect="spiro"
       id="path-effect2225-4"
       is_visible="true"
       lpeversion="1" />
  </defs>
  <g
     inkscape:label="Vrstva 1"
     inkscape:groupmode="layer"
     id="layer1">
    <path
       sodipodi:type="star"
       style="color:#000000;overflow:visible;fill:#4d4d4d;stroke:none;stroke-width:0.755906;stop-color:#000000"
       id="path31-7"
       inkscape:flatsided="true"
       sodipodi:sides="6"
       sodipodi:cx="384.06049"
       sodipodi:cy="255.24709"
       sodipodi:r1="109.55476"
       sodipodi:r2="94.877205"
       sodipodi:arg1="1.5707963"
       sodipodi:arg2="2.0943951"
       inkscape:rounded="0"
       inkscape:randomized="0"
       transform="matrix(0.26458333,0,0,0.26458333,-71.616002,-32.534124)"
       inkscape:transform-center-x="1.2802016e-06"
       d="m 384.06049,364.80185 -94.87721,-54.77738 0,-109.55476 94.8772,-54.77739 94.87721,54.77738 1e-5,109.55476 z" />
    <path
       sodipodi:type="star"
       style="color:#000000;overflow:visible;fill:none;stroke:#2e2e2e;stroke-width:2.64566932;stroke-miterlimit:4;stroke-dasharray:none;stroke-opacity:1;stop-color:#000000"
       id="path1425-2"
       inkscape:flatsided="true"
       sodipodi:sides="6"
       sodipodi:cx="384.06049"
       sodipodi:cy="255.24709"
       sodipodi:r1="109.55476"
       sodipodi:r2="94.877205"
       sodipodi:arg1="1.5707963"
       sodipodi:arg2="2.0943951"
       inkscape:rounded="0"
       inkscape:randomized="0"
       transform="matrix(0.26458333,0,0,0.26458333,-71.616002,-32.534124)"
       inkscape:transform-center-x="1.2802016e-06"
       d="m 384.06049,364.80185 -94.87721,-54.77738 0,-109.55476 94.8772,-54.77739 94.87721,54.77738 1e-5,109.55476 z" />
    <path
       id="path1205"
       style="fill:#b3b3b3;fill-rule:evenodd;stroke:none;stroke-width:0.0655031px;stroke-linecap:butt;stroke-linejoin:miter;stroke-opacity:1"
       d="m 13.937309,19.302327 c -2.387267,2e-6 -4.3225517,0.903784 -4.3226387,2.018682 h 2.4443367 l 0.167472,3.125166 h 0.592988 v 10.500592 l -0.05391,-0.0014 c 0,0 0.03702,1.05509 -0.01136,1.248645 -0.247481,0.112572 -0.516507,0.03459 -0.59682,0.209748 -0.08624,1.047791 -0.09319,3.310607 0.06458,3.242014 0.03198,0.03897 0.07449,0.07712 0.130803,0.113562 v 10.017335 l 1.641462,1.254253 1.527488,-1.254253 -0.04282,-9.982034 c 0.06738,-0.03556 0.118967,-0.06865 0.158577,-0.09386 0.177426,-0.204154 0.178283,-3.096306 0.04843,-3.26199 -0.08422,-0.142874 -0.560562,-0.260921 -0.560562,-0.260921 l -0.0091,-1.20035 -0.06109,-0.0041 v -10.52725 h 0.595727 L 15.818206,21.321 h 2.441737 c -8.5e-5,-1.114898 -1.935372,-2.01868 -4.322638,-2.018682 z m -0.992375,2.018682 h 0.822715 v 1.379993 h -0.822715 z m 1.162035,0 h 0.825314 v 1.379993 h -0.825314 z"
       sodipodi:nodetypes="ccccccccccccccccccccccccccccccccccc" />
    <text
       xml:space="preserve"
       style="font-size:9.56013px;line-height:14.3402px;font-family:'Liberation Sans';-inkscape-font-specification:'Liberation Sans, Normal';letter-spacing:0.358504px;word-spacing:0px;fill:#ffffff;stroke:#000000;stroke-width:0.358504px;stroke-linecap:butt;stroke-linejoin:miter;stroke-opacity:1"
       x="18.880306"
       y="34.013237"
       id="text38552"
       transform="scale(0.97507456,1.0255626)"><tspan
         sodipodi:role="line"
         id="tspan38550"
         style="font-style:normal;font-variant:normal;font-weight:bold;font-stretch:normal;font-size:9.56013px;font-family:Arial;-inkscape-font-specification:'Arial Bold';fill:#ffffff;fill-opacity:1;stroke:none;stroke-width:0.358504px"
         x="18.880306"
         y="34.013237">myClim</tspan></text>
    <circle
       id="path65649"
       style="fill:#000000;stroke:#000000;stroke-width:0.264583"
       cx="-3.0636067"
       cy="47.708912"
       r="0.0090980344" />
    <circle
       id="path65651"
       style="fill:#000000;stroke:#000000;stroke-width:0.264583"
       cx="-3.0636067"
       cy="47.708912"
       r="0.0090980344" />
    <path
       style="fill:#ffffff;fill-rule:nonzero;stroke:none;stroke-width:0.529;stroke-linecap:round;stroke-linejoin:round;stroke-miterlimit:4;stroke-dasharray:none;stroke-opacity:1"
       d="m 6.31413,39.604765 c 0.077102,-0.2826 0.2042691,-0.749931 0.4626135,-1.6956 0.043005,-0.157419 0.09177,-0.335953 0.1460155,-0.534571 A 0.26271721,0.25080451 57.884031 0 0 6.9294229,37.342 C 7.0994519,36.109838 7.3189649,34.518777 7.58067,32.621867 7.8105031,32.3808 8.0651793,32.113673 8.3416728,31.823675 a 0.25883839,0.25755475 75.399985 0 0 0.060133,-0.103081 c 0.3326171,-1.094003 0.68609,-2.256586 1.0581197,-3.480171 0.053843,0.09994 0.1084921,0.201372 0.1639052,0.30423 a 0.25903947,0.25983608 80.786871 0 0 0.1844186,0.132512 c 0.3030598,0.05223 0.6153138,0.106051 0.9356948,0.161284 0.03561,0.832528 0.07211,1.686175 0.109371,2.557888 a 0.27896718,0.23143035 45.674189 0 0 0.0016,0.01981 c 0.121712,1.018453 0.246024,2.058799 0.372475,3.117202 a 0.26386192,0.25982849 29.621321 0 0 0.0223,0.0787 c 0.268035,0.58051 0.540474,1.170603 0.816408,1.76831 a 0.26380389,0.26173807 4.147249 0 0 0.0967,0.110942 c 0.396722,0.254644 0.798356,0.512464 1.20366,0.772666 a 0.26255854,0.2645909 61.816936 0 0 0.139849,0.04168 c 0.973639,0.0095 1.955962,0.01913 2.944093,0.02882 a 0.26452229,0.26587327 22.274858 0 0 0.193988,-0.08183 c 0.16642,-0.173617 0.333494,-0.347901 0.501011,-0.52263 0.253027,0.451272 0.682977,1.218141 1.11298,1.985161 0.08821,0.495181 0.176394,0.990394 0.264323,1.484341 a 0.27078666,0.26825062 14.260157 0 0 0.09883,0.164423 c 0.345585,0.27206 0.6903,0.543472 1.03331,0.813581 0.139216,0.812501 0.277636,1.620562 0.414885,2.422011 a 0.27497833,0.27206783 18.024068 0 0 0.07544,0.146275 c 0.493901,0.498517 0.983447,0.9927 1.467129,1.481033 a 0.27536037,0.27659665 52.281823 0 0 0.33735,0.04234 c 0.281794,-0.167799 0.560617,-0.333784 0.835788,-0.497548 0.422819,0.221738 0.839126,0.440118 1.24768,0.654495 a 0.28078454,0.28179782 31.901295 0 0 0.357893,-0.08396 c 0.618017,-0.847964 1.222879,-1.677753 1.812195,-2.486076 0.560259,-0.279737 1.109582,-0.553962 1.64675,-0.822065 0.189184,-0.09442 0.379999,-0.189651 0.572388,-0.285656 0.3859,0.217642 0.782796,0.441591 1.18918,0.670987 a 0.2925498,0.29428333 32.620271 0 0 0.382116,-0.08506 c 0.444975,-0.617895 0.900079,-1.249729 1.363763,-1.89336 0.296482,0.115923 0.59728,0.233582 0.901689,0.352697 a 0.30203916,0.30576231 34.420089 0 0 0.317165,-0.06125 c 0.716422,-0.664243 1.443177,-1.337986 2.177844,-2.018993 a 0.32037201,0.30158288 81.461676 0 0 0.07554,-0.10896 c 0.177701,-0.426785 0.356842,-0.856954 0.537098,-1.289734 0.102621,0.09324 0.205508,0.186742 0.308591,0.280429 a 0.32033133,0.32564112 49.748328 0 0 0.393395,0.02942 c 0.32218,-0.209297 0.645364,-0.419222 0.968999,-0.629418 0.182633,0.322406 0.538206,0.950169 0.893155,1.576882 0.186838,0.959114 0.373307,1.916469 0.558885,2.869358 a 0.37779906,0.27890701 36.620035 0 0 0.02025,0.06647 c 0.248759,0.600169 0.496298,1.197452 0.741875,1.790047 a 0.35084522,0.35307088 64.114872 0 0 0.497557,0.170679 c 0.663411,-0.371048 1.32149,-0.739092 1.972153,-1.102971 a 0.36612992,0.35212142 89.931801 0 0 0.143697,-0.14977 c 0.300985,-0.585212 0.599042,-1.164707 0.893464,-1.737116 0.22418,0.123175 0.445744,0.244918 0.664317,0.365022 a 0.36700753,0.38084219 50.311726 0 0 0.305656,0.02272 c 0.322335,-0.114607 0.639536,-0.227385 0.950847,-0.338065 0.153743,0.27455 0.304068,0.543 0.450557,0.804593 a 0.23688568,0.05515983 44.40474 0 0 0.02109,0.03312 c 0.346671,0.492862 0.680279,0.967145 0.998763,1.419905 a 0.39283471,0.40151484 74.466747 0 0 0.302882,0.16679 c 0.658521,0.03773 1.283634,0.07353 1.870468,0.10712 1.015131,0.386425 2.004641,0.763056 2.898521,1.103224 0.409141,0.322175 0.760769,0.598918 1.045403,0.822713 a 0.41344964,0.42504365 59.075116 0 0 0.340053,0.08028 c 0.252669,-0.04939 0.454479,-0.089 0.599279,-0.117654 0.310954,-0.06153 0.448501,-0.09011 0.538201,-0.108135 a 0.42167314,0.42167314 90 0 0 -0.166124,-0.826822 c -0.0897,0.01802 -0.227611,0.04479 -0.538201,0.108134 -0.107019,0.02183 -0.245146,0.05018 -0.411899,0.08453 -0.268369,-0.207163 -0.586386,-0.45247 -0.947794,-0.731128 a 0.44345258,0.3756994 69.588913 0 0 -0.107619,-0.06044 c -0.910987,-0.342084 -1.922429,-0.721815 -3.021021,-1.134218 a 0.42474823,0.37333845 53.195821 0 0 -0.121612,-0.02559 c -0.549097,-0.02719 -1.132176,-0.05604 -1.745191,-0.08636 -0.206513,-0.288197 -0.540843,-0.754745 -0.88817,-1.239422 -0.196724,-0.341388 -0.400191,-0.694471 -0.609419,-1.057558 a 0.38498976,0.37952918 64.840628 0 0 -0.462384,-0.170581 c -0.357471,0.131721 -0.723281,0.266512 -1.096236,0.403931 -0.278831,-0.148378 -0.562295,-0.299227 -0.849635,-0.452148 a 0.36936826,0.36580169 27.440864 0 0 -0.501439,0.156 c -0.330367,0.652639 -0.665612,1.314893 -1.004702,1.984711 -0.440727,0.250313 -0.981783,0.557596 -1.526729,0.867074 -0.09104,-0.215051 -0.338671,-0.800023 -0.58747,-1.38782 -0.1914,-0.95792 -0.383676,-1.920329 -0.576274,-2.884477 a 0.31666971,0.35231717 21.515061 0 0 -0.03799,-0.101961 c -0.368234,-0.640572 -0.737113,-1.28232 -1.105566,-1.923384 a 0.33151227,0.32911111 58.305017 0 0 -0.468398,-0.112568 c -0.351158,0.232676 -0.702007,0.465121 -1.051834,0.696861 -0.154186,-0.135825 -0.307819,-0.271187 -0.460665,-0.405884 a 0.31884766,0.31620698 31.877671 0 0 -0.504551,0.11541 c -0.226205,0.554007 -0.450873,1.104148 -0.67336,1.648829 -0.634394,0.593031 -1.312147,1.226532 -1.981095,1.851735 -0.318259,-0.120948 -0.632364,-0.240365 -0.941502,-0.357947 a 0.30073356,0.29802756 28.10878 0 0 -0.350449,0.104689 C 30.55266,40.541 30.105847,41.166738 29.668489,41.779116 29.29405,41.57097 28.928095,41.36746 28.571835,41.169253 a 0.29075451,0.28778035 46.027014 0 0 -0.270625,-0.0062 c -0.238738,0.120096 -0.4751,0.238984 -0.708974,0.356609 -0.556027,0.279648 -1.125144,0.565819 -1.705996,0.857835 a 0.28817681,0.28171694 4.0576524 0 0 -0.102795,0.08716 c -0.555114,0.76519 -1.124273,1.54961 -1.705448,2.350475 -0.384558,-0.199795 -0.775647,-0.403039 -1.172259,-0.609202 a 0.27952631,0.27701858 43.077256 0 0 -0.271865,0.0079 c -0.257746,0.155126 -0.518872,0.31224 -0.782804,0.471002 -0.312347,-0.313844 -0.782718,-0.786537 -1.257103,-1.263321 -0.13963,-0.806983 -0.280367,-1.620597 -0.421833,-2.438629 a 0.26999928,0.27226883 13.946688 0 0 -0.09984,-0.167391 c -0.344307,-0.269588 -0.69036,-0.540582 -1.037318,-0.812322 -0.08564,-0.47485 -0.171453,-0.950797 -0.257229,-1.426689 a 0.26411619,0.27193533 24.430122 0 0 -0.03009,-0.08387 C 18.309337,37.71286 17.871096,36.933245 17.434154,36.155888 a 0.26643034,0.26605149 52.1647 0 0 -0.4247,-0.05369 c -0.223743,0.234582 -0.446913,0.468533 -0.669005,0.701326 -0.847576,-0.0076 -1.80458,-0.01617 -2.753414,-0.02471 -0.319702,-0.204528 -0.700181,-0.447962 -1.076301,-0.688627 -0.238331,-0.514845 -0.505546,-1.092132 -0.768524,-1.660303 -0.121704,-1.013721 -0.246185,-2.050721 -0.368041,-3.065984 -0.04079,-0.94149 -0.08064,-1.861887 -0.119405,-2.757341 A 0.25993099,0.26021851 3.6101977 0 0 11.038915,28.361365 C 10.689788,28.301609 10.349844,28.243413 10.020421,28.187008 9.8820563,27.930961 9.7486569,27.684079 9.6208665,27.447562 a 0.25895902,0.25885277 39.265654 0 0 -0.475529,0.04765 c -0.4315683,1.42071 -0.8394242,2.763318 -1.2201252,4.016515 -0.2829665,0.297281 -0.5425319,0.569965 -0.7753525,0.814556 a 0.25766589,0.25834393 70.654782 0 0 -0.068748,0.142657 c -0.265182,1.924878 -0.4874838,3.538527 -0.659348,4.786293 -0.052382,0.192194 -0.099571,0.365352 -0.1413075,0.518526 -0.2577195,0.94584 -0.3855113,1.413 -0.4626136,1.695599 A 0.25721368,0.25721368 90 0 0 6.31413,39.604765 Z"
       id="path66979"
       sodipodi:nodetypes="cccccccccccccccccccccccccccccccccccccccccc"
       inkscape:path-effect="#path-effect69648"
       inkscape:original-d="m 6.0659861,39.537063 0.6084732,-2.230213 0.6621213,-4.802687 0.8180258,-0.858695 1.238427,-4.074975 0.4591455,0.850951 1.1426941,0.196297 0.119086,2.76738 0.37332,3.117101 0.817278,1.767908 1.20424,0.771761 2.944105,0.02762 0.749026,-0.783254 1.3122,2.337413 0.273857,1.528314 1.11672,0.876885 0.434529,2.524273 1.468796,1.479378 0.968834,-0.579806 1.386529,0.723911 1.850474,-2.544442 2.416768,-1.21085 1.324398,0.741839 1.49534,-2.085016 1.118334,0.431259 2.173705,-2.023441 0.704593,-1.708436 0.644172,0.576353 1.261056,-0.827252 1.099471,1.926868 0.576283,2.921145 0.748615,1.787224 1.968511,-1.109435 1.05982,-2.07696 0.996315,0.538786 1.254202,-0.454009 0.613634,1.080175 1.004973,1.415497 1.93489,0.103269 3.018438,1.14105 1.097404,0.855118 1.136949,-0.228434" />
  </g>
</svg>
