<?xml version="1.0" encoding="utf-8"?>
<!-- Generator: Adobe Illustrator 15.0.0, SVG Export Plug-In . SVG Version: 6.00 Build 0)  -->
<!DOCTYPE svg PUBLIC "-//W3C//DTD SVG 1.1//EN" "http://www.w3.org/Graphics/SVG/1.1/DTD/svg11.dtd">
<svg version="1.1" xmlns="http://www.w3.org/2000/svg" xmlns:xlink="http://www.w3.org/1999/xlink" x="0px" y="0px"
	 width="124.56px" height="144px" viewBox="0 0 124.56 144" enable-background="new 0 0 124.56 144" xml:space="preserve">
<g id="pozadi">
</g>
<g id="mask_kopie">
	<g>
		<polygon fill="#595959" points="1.759,107.201 1.759,37.246 62.342,2.27 122.925,37.246 122.925,107.201 62.342,142.178 		"/>
		<path d="M62.342,4.315l58.812,33.954v67.908l-58.812,33.954L3.531,106.178V38.27L62.342,4.315 M62.342,0.224l-62.354,36v72
			l62.354,36l62.354-36v-72L62.342,0.224L62.342,0.224z"/>
	</g>
	<path id="path1205" sodipodi:nodetypes="ccccccccccccccccccccccccccccccccccc" fill="#8D8C8C" d="M62.844,18.971
		c-8.86,0-16.042,3.354-16.042,7.491h9.072l0.621,11.6h2.201v38.971l-0.2-0.006c0,0,0.138,3.916-0.042,4.634
		c-0.919,0.419-1.918,0.129-2.216,0.779c-0.32,3.888-0.345,12.286,0.241,12.032c0.118,0.145,0.276,0.286,0.485,0.422v37.177
		l6.092,4.655l5.669-4.655l-0.159-37.047c0.25-0.132,0.441-0.255,0.589-0.349c0.657-0.758,0.661-11.491,0.179-12.106
		c-0.312-0.529-2.079-0.968-2.079-0.968l-0.035-4.455l-0.226-0.015V38.062h2.21l0.621-11.6h9.063
		C78.886,22.324,71.704,18.971,62.844,18.971L62.844,18.971z M59.161,26.462h3.053v5.122h-3.053V26.462z M63.474,26.462h3.063v5.122
		h-3.063V26.462z"/>
</g>
<g id="myClim" display="none">
	
		<text transform="matrix(1 0 0 1 54.7734 66.6377)" display="inline" fill="#FFFFFF" font-family="'ExcelsorScript10'" font-size="53.5459">my</text>
	
		<text transform="matrix(1 0 0 1 24.6382 104.2559)" display="inline" fill="#FFFFFF" font-family="'ExcelsorScript10'" font-size="53.5459">Clim</text>
</g>
<g id="graf_2" display="none">
	<path display="inline" fill="none" stroke="#30BBE2" stroke-width="1.2" stroke-miterlimit="10" d="M3.745,75.43
		c0,0,8.94-12.929,12.565-12.179s3.459,10.085,8.122,10.804c3.951,0.609,8.813-2,15.563-7.25S63.37,44.68,63.37,44.68"/>
</g>
<g id="myClim_vektor">
	<g>
		<path fill="#FFFFFF" d="M80.564,50.89c0,1.553-1.713,4.391-3.48,7.229c-0.91,1.445-3.427,5.301-3.427,6.96
			c0,0.482,0.269,0.75,0.804,0.75c1.178,0,4.444-2.624,9.905-9.209l0.481,0.695c-5.354,6.426-8.727,9.638-11.564,9.638
			c-1.446,0-2.035-1.07-2.035-2.355c0-1.874,1.767-4.872,3.427-7.604c0.856-1.392,1.714-2.73,2.356-3.854
			c0.643-1.178,1.017-2.088,1.017-2.678c0-0.749-0.214-0.964-0.856-0.964c-1.285,0-4.391,2.785-6.318,5.729
			c-2.142,3.373-4.765,7.978-6.425,11.512c-0.428-0.16-0.749-0.214-1.178-0.214s-0.857,0.054-1.714,0.268
			c1.714-3.48,3.909-7.067,5.676-10.066c1.874-3.052,3.213-5.407,3.213-6.157c0-0.91-0.215-1.071-0.804-1.071
			c-1.392,0-5.247,2.678-7.014,5.837c-1.981,3.587-3.962,7.281-6.586,11.404c-0.428-0.16-0.75-0.214-1.178-0.214
			c-0.428,0-0.856,0.054-1.713,0.375c3.962-6.372,9.049-15.688,9.799-17.776c0.214-0.589,1.018-0.804,1.714-0.804
			c0.589,0,1.178,0.321,1.178,1.018c-0.268,0.643-0.696,1.445-1.178,2.195c1.82-1.66,4.068-3.213,5.889-3.213
			c1.874,0,2.356,1.125,2.356,2.517c0,0.215-0.054,0.482-0.161,0.75c1.714-1.768,3.694-3.267,5.354-3.267
			C79.976,48.319,80.564,49.818,80.564,50.89z"/>
		<path fill="#FFFFFF" d="M83.757,76.446c-1.393,2.303-2.731,4.337-4.069,6.051c-2.731,3.427-5.569,5.568-9.21,5.568
			c-2.249,0-3.802-1.231-3.802-3.802c0-2.73,1.632-4.433,3.346-4.433c0.695,0,1.791,0.463,1.838,1.447
			c0.064,1.346-1.314,2.356-2.452,1.646c-0.735-0.459-1.553,0.59-1.553,2.035c0,1.339,0.956,2.371,2.563,2.371
			c3.105,0,5.683-2.746,8.146-6.44c2.142-3.319,7.625-13.188,9.873-17.097c-1.767,1.659-3.962,3.158-5.782,3.158
			c-1.874,0-2.463-1.017-2.463-2.516c0-1.553,1.767-4.391,3.534-7.282c1.338-2.088,3.748-5.676,4.283-8.085
			c0.375-0.535,1.124-0.75,1.82-0.75c0.589,0,1.178,0.321,1.178,1.018c-0.428,1.178-1.124,2.57-1.98,4.069l-2.785,4.551
			c-1.927,3.053-3.533,5.676-3.533,6.747c0,0.856,0.268,1.07,0.856,1.07c1.393,0,5.247-2.677,7.015-5.836
			c1.98-3.588,3.962-7.282,6.585-11.404c0.429,0.16,0.75,0.214,1.179,0.214c0.428,0,0.856-0.054,1.767-0.321
			C98.181,51.371,85.148,74.197,83.757,76.446z"/>
	</g>
	<path fill="#FFFFFF" d="M30.688,103.259c0-5.086,2.069-10.629,7.175-17.883s13.439-14.243,19.383-14.243
		c2.517,0,4.069,0.91,4.069,3.213c0,4.872-10.655,11.458-20.829,11.94c-4.283,6.425-6.96,13.492-6.96,18.472
		c0,2.624,0.964,4.017,3.159,4.017c4.176,0,8.246-3.855,12.904-9.37l0.482,0.695c-5.14,6.158-9.263,9.799-13.921,9.799
		C32.456,109.898,30.688,107.274,30.688,103.259z M57.567,71.99c-4.766,0-11.352,5.943-16.492,13.492
		c9.317-0.643,18.687-6.479,18.687-11.351C59.763,72.793,58.959,71.99,57.567,71.99z"/>
	<path fill="#FFFFFF" d="M48.198,107.863c0,0.482,0.268,0.75,0.803,0.75c1.178,0,4.444-2.624,9.905-9.209l0.482,0.695
		c-5.354,6.426-8.728,9.638-11.565,9.638c-1.499,0-1.874-1.07-1.874-2.355c0-1.445,0.91-3.48,2.088-5.515
		c5.033-8.781,12.315-20.882,17.294-29.877c0.321-0.482,1.124-0.696,1.66-0.696c0.643,0,1.231,0.214,1.231,1.018
		c-6.158,10.387-12.958,21.685-18.098,30.68C49.001,104.973,48.198,106.686,48.198,107.863z"/>
	<path fill="#FFFFFF" d="M57.568,107.811c0,0.589,0.268,0.803,0.803,0.803c1.178,0,4.444-2.624,9.905-9.209l0.482,0.695
		c-5.355,6.426-8.728,9.638-11.566,9.638c-1.499,0-1.874-1.07-1.874-2.355c0-1.553,1.392-4.229,2.999-7.014
		c1.606-2.838,3.48-5.891,4.551-8.3c0.321-0.481,1.017-0.696,1.606-0.696c0.643,0,1.339,0.215,1.339,1.018
		c-0.857,1.714-2.945,5.033-4.819,8.192C59.174,103.795,57.568,106.739,57.568,107.811z"/>
	<path fill="#FFFFFF" d="M89.586,93.675c0,1.553-1.713,4.391-3.48,7.229c-0.91,1.445-3.427,5.301-3.427,6.96
		c0,0.482,0.269,0.75,0.804,0.75c1.178,0,4.444-2.624,9.905-9.209l0.481,0.695c-5.354,6.426-8.727,9.638-11.564,9.638
		c-1.446,0-2.035-1.07-2.035-2.355c0-1.874,1.767-4.872,3.427-7.604c0.856-1.392,1.714-2.73,2.356-3.854
		c0.643-1.178,1.017-2.089,1.017-2.678c0-0.749-0.214-0.964-0.856-0.964c-1.285,0-4.391,2.785-6.318,5.729
		c-2.142,3.373-4.765,7.978-6.425,11.512c-0.429-0.16-0.75-0.214-1.178-0.214c-0.429,0-0.856,0.054-1.714,0.268
		c1.714-3.48,3.909-7.067,5.676-10.066c1.874-3.052,3.213-5.407,3.213-6.157c0-0.91-0.215-1.071-0.804-1.071
		c-1.392,0-5.247,2.678-7.014,5.837c-1.981,3.587-3.962,7.281-6.586,11.404c-0.429-0.16-0.75-0.214-1.179-0.214
		c-0.428,0-0.856,0.054-1.713,0.375c3.963-6.372,9.049-15.688,9.799-17.776c0.214-0.589,1.018-0.804,1.713-0.804
		c0.589,0,1.178,0.321,1.178,1.018c-0.268,0.643-0.695,1.445-1.178,2.195c1.82-1.66,4.069-3.213,5.89-3.213
		c1.874,0,2.356,1.125,2.356,2.517c0,0.214-0.054,0.482-0.161,0.75c1.714-1.768,3.694-3.267,5.354-3.267
		C88.997,91.104,89.586,92.604,89.586,93.675z"/>
	<linearGradient id="SVGID_1_" gradientUnits="userSpaceOnUse" x1="3.4595" y1="65.6748" x2="62.9375" y2="65.6748">
		<stop  offset="0" style="stop-color:#30BBE2"/>
		<stop  offset="0.3349" style="stop-color:#32BCE2"/>
		<stop  offset="0.4789" style="stop-color:#39BEE3"/>
		<stop  offset="0.5863" style="stop-color:#46C2E5"/>
		<stop  offset="0.6755" style="stop-color:#58C8E8"/>
		<stop  offset="0.7535" style="stop-color:#6FD0EB"/>
		<stop  offset="0.8236" style="stop-color:#8BD9EF"/>
		<stop  offset="0.8878" style="stop-color:#ADE4F4"/>
		<stop  offset="0.9456" style="stop-color:#D4F1F9"/>
		<stop  offset="1" style="stop-color:#FFFFFF"/>
	</linearGradient>
	<path fill="url(#SVGID_1_)" d="M3.533,81.499l-0.074-1.71c1.531-2.215,9.151-12.918,12.973-12.126
		c2.007,0.416,2.93,2.772,3.906,5.267c1.001,2.557,2.036,5.2,4.186,5.532c3.473,0.537,8.153-1.327,15.268-6.86
		c6.642-5.166,22.896-21.582,23.062-21.75l0.083,0.709c-0.167,0.169-15.87,16.504-22.574,21.718
		c-7.5,5.833-12.143,7.971-16.022,7.369c-2.833-0.437-4.048-3.541-5.12-6.28c-0.855-2.183-1.57-4.024-2.94-4.308
		C13.92,68.547,6.902,76.628,3.533,81.499z"/>
	<linearGradient id="SVGID_2_" gradientUnits="userSpaceOnUse" x1="121.1797" y1="76.0771" x2="93.3438" y2="76.0771">
		<stop  offset="0.7091" style="stop-color:#F8B334"/>
		<stop  offset="0.7566" style="stop-color:#F8B437"/>
		<stop  offset="0.798" style="stop-color:#F8B842"/>
		<stop  offset="0.837" style="stop-color:#F9BF54"/>
		<stop  offset="0.8747" style="stop-color:#FAC86D"/>
		<stop  offset="0.9114" style="stop-color:#FBD58E"/>
		<stop  offset="0.9474" style="stop-color:#FCE4B6"/>
		<stop  offset="0.9821" style="stop-color:#FEF5E4"/>
		<stop  offset="1" style="stop-color:#FFFFFF"/>
	</linearGradient>
	<path fill="url(#SVGID_2_)" d="M93.344,99.466c0,0,3.018-4.3,4.25-6.75c2.06-4.096,4.326-11.179,6.455-17.836
		c1.604-5.014,2.988-9.344,4.07-11.426c0.455-0.876,1.21-1.971,2.009-3.129c0.689-0.999,1.402-2.032,1.94-2.955
		c0.335-0.575,0.607-1.279,0.87-1.96c0.658-1.704,1.364-3.473,3.094-3.35c1.749,0.124,1.399,2.803,1.905,8.468
		c0.33,3.701,0.938,8.585,1.875,9.531c0.786,0.794,1.358,0.832,1.367,0.837v1.143c-0.037-0.021-1.154-0.654-2.035-1.544
		c-1.107-1.118-1.496-4.634-1.964-9.868c-0.256-2.862-0.274-7.614-1.32-7.582c-0.868,0-1.336,1.036-1.989,2.726
		c-0.277,0.718-0.563,1.46-0.939,2.104c-0.557,0.956-1.28,2.005-1.98,3.019c-0.781,1.133-1.519,2.202-1.945,3.022
		c-1.042,2.007-2.481,6.506-4.005,11.27c-2.144,6.704-4.573,14.303-6.899,18.374c-1.396,2.443-4.232,6.541-4.232,6.541
		L93.344,99.466z"/>
	<linearGradient id="SVGID_3_" gradientUnits="userSpaceOnUse" x1="3.5332" y1="60.8701" x2="38.6284" y2="60.8701">
		<stop  offset="0.7091" style="stop-color:#F8B334"/>
		<stop  offset="0.7566" style="stop-color:#F8B437"/>
		<stop  offset="0.798" style="stop-color:#F8B842"/>
		<stop  offset="0.837" style="stop-color:#F9BF54"/>
		<stop  offset="0.8747" style="stop-color:#FAC86D"/>
		<stop  offset="0.9114" style="stop-color:#FBD58E"/>
		<stop  offset="0.9474" style="stop-color:#FCE4B6"/>
		<stop  offset="0.9821" style="stop-color:#FEF5E4"/>
		<stop  offset="1" style="stop-color:#FFFFFF"/>
	</linearGradient>
	<path fill="url(#SVGID_3_)" d="M38.616,86.409c-0.148-0.002-3.668-0.075-7.235-1.604c-3.292-1.411-3.941-5.07-4.463-8.012
		c-0.084-0.475-0.166-0.934-0.255-1.362c-0.708-3.397-1.59-5.748-2.624-6.988c-1.42-1.703-3.017-10.723-3.139-14.991
		c-0.015-0.52-0.028-1.164-0.043-1.896c-0.072-3.528-0.319-15.205-1.467-15.168c-0.571,0.01-0.577,0.998-0.949,2.15
		c-0.172,0.534-0.373,1.152-0.628,1.853c-0.171,0.471-0.596,1.127-1.087,1.888c-0.514,0.796-1.097,1.698-1.25,2.212
		c-1.447,4.864-2.839,11.403-3.957,16.657c-0.522,2.452-1.015,4.769-1.436,6.55C7.947,76.75,3.701,81.32,3.533,81.499v-2.033
		c0.039-0.042,3.326-3.331,5.383-12.044c0.417-1.769,0.909-4.078,1.43-6.523c1.123-5.275,2.52-11.84,3.98-16.75
		c0.202-0.679,0.807-1.616,1.393-2.521c0.414-0.641,0.842-1.304,0.968-1.647c0.25-0.685,0.444-1.288,0.613-1.811
		c0.538-1.663,0.893-2.762,2.039-2.833c0.205-0.021,0.52,0.03,0.826,0.312c1.333,1.228,1.712,6.987,1.893,15.884
		c0.015,0.729,0.028,1.369,0.042,1.886c0.132,4.609,1.816,13.005,2.861,14.259c1.177,1.412,2.118,3.869,2.876,7.512
		c0.092,0.439,0.175,0.909,0.262,1.396c0.496,2.795,1.018,6.258,3.713,7.413c3.343,1.433,6.782,1.593,6.816,1.594L38.616,86.409z"/>
</g>
<g id="graf_linka" display="none">
	<path display="inline" fill="none" stroke="#F8B334" stroke-miterlimit="10" d="M3.375,75.81c0,0,4-4.25,6.125-13.25
		c1.322-5.6,3.273-16.085,5.401-23.24c0.323-1.086,2.019-3.23,2.349-4.135c0.99-2.712,1.134-4.188,2.125-4.25
		c2-0.125,2,13.125,2.125,17.5s1.75,13.125,3,14.625s2.125,4.25,2.75,7.25s0.867,7.444,4.367,8.944s7.008,1.556,7.008,1.556"/>
	<path display="inline" fill="none" stroke="#F29400" stroke-miterlimit="10" d="M88.667,100.311c0,0,5-5,9-12
		s8.396-24.814,10.896-29.626c0.831-1.6,2.771-4.063,3.938-6.063s1.503-5.191,3.5-5.063c1.938,0.125,1.375,15.438,3.5,17.584
		c0.846,0.854,1.688,1.354,1.688,1.354"/>
</g>
</svg>
